<svg id="g435efbw345yw4tyw457" data-name="Layer 1" xmlns="http://www.w3.org/2000/svg" width="100%"
    height="100%" viewBox="0 0 550 500" class='svgicon'>
  <g transform="matrix(1 0 0 -1 0 500)">
    <g transform="scale(.02)">
      <g transform="scale(1.6932)">
        <path d="m0 10867v-10867h16300v10867h-16300" fill="#fff" />
      </g>
      <g transform="scale(1.6066)">
        <path
          d="m14049 1126.2s1056.5-250.46 1576.6 884.66c674.7 1472.6-272.3 2871.6-1906 2972.4-2356.1 145.28-1050.3 3907-4768.3 2886.4-1045.5-286.99-3319.4 1194.6-4657.9-1315.8-227.61-426.85-908.03-405.9-1814.6-1134.1-1599.1-1284.6-1023.5-4307.2 323.92-4320.9 1347.4-13.69 11246 27.38 11246 27.38"
          fill="#fcecdb" />
      </g>
      <g transform="scale(1.2456)">
        <path
          d="m3918.5 1424.4s63.34 415.05 871.64 526.73c808.3 111.67 1559.9 1007 2892.8 877.08 1333-129.9 2439-945.32 3956.4-695.49 1517.4 249.84 2467.5-68.56 2807.8-319.76 340.3-251.12 1748.9 58.93 1852.9-401.24l-12382 12.68"
          fill="#a8d29f" />
      </g>
      <path d="m9019.6 14094s-1136.3 55.5-533.53-3407.7c0 0 405.54-1175.6-106.4-1933.4h7536v5341h-6896.1"
        fill="#afcdfb" />
      <path
        d="m9793.6 5090s-526.48 614.2-32.46 1004.4c0 0 360.87 218.5 655.07 200.7 0 0-416.9-699.1-282-768.7 134.9-69.5 408.4 812.6 408.4 812.6s821.1 79.6 1085.3-47.4c0 0-702-574.5-554.1-608.7 147.8-34.2 906.1 529.7 906.1 529.7s764.2-130.1 723.5-596.3c-40.8-466.2-304.1-610.2-419.9-597.8-115.7 12.4-792.8 270.8-807.5 176-14.8-94.8 392.8-404.8 678.2-419.3 0 0-538.8-594.2-897-422.7-358.1 171.5-388.6 443.3-611.9 545.3-223.2 102-413.8 101.7-321.6-2.3s496.2-205 623.8-430.8c127.7-225.9 242.2-378.1-128.3-322.4s-972.73 326.9-999.17 637.3-26.44 310.4-26.44 310.4"
        fill="#599dad" />
      <path
        d="m12328 5603.7s-2075.9 80-2534.3-513.7c0 0-101.38-303.6-413.36-580.1l-48.63-132.5s359.72 379.3 488.43 402.2c0 0-201.29 735.5 2507.9 824.1"
        fill="#599dad" />
      <path
        d="m9380.2 4509.9s-445.55-329.5-476.5-918.3l80.86-7.2s142.31 608.8 399.52 846.8c257.2 238.1-3.88 78.7-3.88 78.7"
        fill="#599dad" />
      <path
        d="m7952.8 5862.5s837.49 469 446.66 1105.5c0 0-312.66 390.8-647.65 491.3 0 0 178.66-949.2 0-971.5-178.68-22.3-122.84 1072-122.84 1072s-882.16 424.3-1228.3 390.8c0 0 547.16-926.8 368.5-904.5-178.66 22.4-792.83 960.4-792.83 960.4s-904.49 167.5-1049.7-368.5 89.34-804 223.33-837.5 993.83-22.4 971.49-134c-22.32-111.7-602.99-290.3-926.82-189.9 0 0 357.33-882.1 826.33-837.4 468.99 44.6 614.16 334.9 904.5 357.3 290.32 22.3 502.49-55.9 357.32-134-145.16-78.2-636.49-25.6-870.99-225-234.5-199.3-424.34-322.2 11.16-411.5s1217.2-33.5 1373.5 301.5c156.34 335 156.34 335 156.34 335"
        fill="#6bb7bf" />
      <path
        d="m5339.8 7470.5s2345-759.4 2613-1608c0 0-11.17-379.7 223.33-815.2v-167.5s-245.66 569.5-379.67 647.7c0 0 524.84 737-2456.6 1943"
        fill="#6bb7bf" />
      <path d="m8176.2 5047.3s361.63-549.1 155.47-1217.6l-93.04 25s90.31 736.3-98.89 1106.6 36.46 86 36.46 86"
        fill="#6bb7bf" />
      <path
        d="m9285.2 6509.3s-1104 618.2-588.77 1457.2c0 0 412.14 515.23 853.73 647.7 0 0-235.51-1251.2 0-1280.6s161.91 1413.1 161.91 1413.1 1162.9 559.35 1619.2 515.19c0 0-721.3-1221.8-485.8-1192.3 235.5 29.4 1045.1 1265.9 1045.1 1265.9s1192.3 220.8 1383.7-485.75c191.3-706.52-117.8-1059.8-294.4-1104-176.7-44.1-1310.1-29.4-1280.6-176.6 29.4-147.2 794.8-382.7 1221.7-250.2 0 0-471-1162.9-1089.3-1104-618.2 58.9-809.6 441.6-1192.3 471-382.7 29.5-662.35-73.6-471-176.6 191.4-103.1 839-33.8 1148.1-296.6 309.2-262.7 559.4-424.7-14.7-542.4-574-117.8-1604.4-44.2-1810.5 397.4l-206.08 441.6"
        fill="#86d1cd" />
      <path
        d="m12730 8628.9s-3091.1-1000.9-3444.4-2119.6c0 0 14.72-500.5-294.38-1074.5v-220.8s323.83 750.7 500.46 853.7c0 0-691.83 971.5 3238.3 2561.2"
        fill="#6bb7bf" />
      <path
        d="m8990.8 5434.8s-476.71-723.9-204.95-1605.1l122.65 32.9s-119.06 970.6 130.36 1458.7c249.4 488.2-48.06 113.5-48.06 113.5"
        fill="#6bb7bf" />
      <path d="m9248 1918.8c1194.4 0 2162.5 968.2 2162.5 2162.5h-4325c0-1194.3 968.18-2162.5 2162.5-2162.5"
        fill="#efcbab" />
      <path
        d="m9780.2 1935.3c-87.96-11-177.64-16.5-268.68-16.5-1194.3 0-2162.4 968.2-2162.4 2162.5h537.24c0-1103.4 826.3-2013.7 1893.8-2146"
        fill="#ffebdc" />
      <path d="m11440 1808.7h-4384.8c0 147.4 119.45 266.8 266.8 266.8h3851.2c147.4 0 266.8-119.4 266.8-266.8"
        fill="#efcbab" />
      <path d="m11460 4015h-4445.3v66.3h4445.3v-66.3" fill="#efcdaf" />
      <g transform="scale(1.2374)">
        <path
          d="m13798 9943.1s-306.1 577.66 152.6 797.66c0 0 323.2 108.2 552.1 42 0 0-452.7-477.2-358.7-556 93.9-78.7 466.1 568.2 466.1 568.2s661.5-82.9 847.3-229.9c0 0-655.4-328.4-544.9-381.6 110.6-53.2 808.4 256.9 808.4 256.9s579.5-238.1 464.7-598.49c-114.9-360.36-348-427.16-437.2-396.86-89 30.31-577 354.19-605.4 282.03-28.5-72.16 237.9-388.82 460.3-450.87 0 0-530.2-372.95-782.1-174.2-251.9 198.74-227.8 418.5-385.8 538.48-157.9 119.99-308.2 153.59-254 55.25 54.3-98.34 354.9-249.68 415.5-450.37 60.5-200.68 123.9-341.07-158.4-231.39-282.2 109.67-709 430.25-674.7 679.69l34.2 249.47"
          fill="#599dad" />
      </g>
      <g transform="scale(1.206)">
        <path
          d="m16300 10156s-1664.6 442.6-2143.6 45.8c0 0-137.2-227.23-439.9-394.11l-63.4-98.37s360 241.35 468.3 236.48c0 0-29 631.6 2178.6 210.2"
          fill="#599dad" />
      </g>
      <g transform="scale(1.0327)">
        <path d="m16020 11454s-491-216.6-645.4-766.3l74.9-24s263.8 544.9 557.4 715.1c293.6 170.3 13.1 75.2 13.1 75.2"
          fill="#599dad" />
      </g>
      <g transform="scale(1.1478)">
        <path
          d="m12702 11843s-977.4 509.8-550.5 1253.8c0 0 345.5 459.4 726.7 586.2 0 0-172.7-1095.7 33.2-1115.2 205.9-19.6 104.4 1234.8 104.4 1234.8s998.2 517.2 1396.7 490.6c0 0-596.5-1082.7-392.2-1050.9 204.4 31.7 877.4 1129.5 877.4 1129.5s1032.6 223.2 1217.5-387.1c185-610.4-75.1-926-227.7-969.1-152.7-43-1140.1-59.6-1110.7-187 29.5-127.4 702.2-312.7 1070.4-186.2 0 0-380-1024.9-919.9-989.7s-716.4 363.6-1050.6 379.3c-334 15.7-574.9-81.3-405.5-166.1 169.3-84.7 731.5-7.6 1007.5-228.4 276-220.9 498.2-355.4 1.3-472.8-496.9-117.5-1396.2-80.1-1587.1 299.1l-190.9 379.2"
          fill="#86d1cd" />
      </g>
      <g transform="scale(1.1018)">
        <path
          d="m16300 14354s-2777.4-991.7-3067.6-2016.1c0 0 26.8-453.7-238.1-982.8l6-200.3s273.5 689.8 430.9 788c0 0-653.8 862.7 2868.8 2411.2"
          fill="#6bb7bf" />
      </g>
      <path d="m14317 12510s-454.9-737.7-157-1610.4l121.6 36.5s-147.9 966.6 86.8 1462c234.8 495.3-51.4 111.9-51.4 111.9"
        fill="#6bb7bf" />
      <g transform="scale(1.0654)">
        <path d="m8914.8 11305v-9631.3h7385.2v9631.3h-7385.2" fill="#9abcef" />
      </g>
      <g transform="scale(1.073)">
        <path d="m9090.9 11225v-9562.5h7209.1v9562.5h-7209.1" fill="#e9f3fe" />
      </g>
      <g transform="scale(1.4218)">
        <path
          d="m16138 1272.1h-1096.3c-58.7 49.79 40.6 162.96 144.5 170.55 45.1 3.45 102.2-5.97 167.3-19.76 15.2 200.38 101.3 1101.2 426 1065 365.1-40.52 0-396.68-103.2-607.54-76.4-156.21-157.1-380.22-194-485.93 29.7-6.4 60.4-12.73 91.7-18.5 48.4 148.61 228.5 648.4 457.4 619.28 268.9-34.11 160.8-234.49-29.7-353.42-139.9-87.5-311.5-211.78-393.1-271.84 69.2-11.32 141.3-18.92 214.4-17.23 187.9 4.5 279.5-50.85 315-80.6"
          fill="#a8d29f" />
      </g>
      <g transform="scale(1.0896)">
        <path
          d="m16053 11054-0.1-0.1h-7099.8c39.27 536.9-19.89 926.7-114.71 1207.1-182.07 539.1-495.87 674.3-495.87 674.3h6695.8c571.4 0 1014.6-344.3 1135.2-801.3 4.5-17.2 8.7-34.3 12.4-51.4 114.4-522.8-128.3-1019.1-132.9-1028.6"
          fill="#e9f3fe" />
      </g>
      <g transform="scale(1.0896)">
        <path
          d="m16053 11054-0.1-0.1h-7099.8c39.27 536.9-19.89 926.7-114.71 1207.1 725.57-132.9 2522.6-416 4446.1-368.3 1244.3 30.9 2227.7 114.1 2901.4 189.9 114.4-522.8-128.3-1019.1-132.9-1028.6"
          fill="#d8e8fd" />
      </g>
      <path
        d="m15447 9678.2h-4102.3c-42.1 0-76.5 34.47-76.5 76.59v39.27c0 42.12 34.4 76.57 76.5 76.57h4102.3c42.1 0 76.6-34.45 76.6-76.57v-39.27c0-42.12-34.5-76.59-76.6-76.59"
        fill="#bbd5fc" />
      <path
        d="m13859 9354.5h-2530.7c-33.2 0-60.4 27.21-60.4 60.45v71.53c0 33.26 27.2 60.45 60.4 60.45h2530.7c33.2 0 60.4-27.19 60.4-60.45v-71.53c0-33.24-27.2-60.45-60.4-60.45"
        fill="#bbd5fc" />
      <path
        d="m10873 9385.7v393.05h-51.8c-31.5 0-47.2 13.08-47.2 39.3 0 18.86 12.3 32.23 37 40.09 12.5 4.18 32.6 7.34 60.1 9.44 27.5 2.09 49.6 3.13 66.4 3.13 16.2 0 26.5-3.28 30.7-9.82 4.1-6.55 6.3-23.18 6.3-49.91v-425.28h53.4c34.6 0 51.9-14.93 51.9-44.81 0-31.44-17.3-47.16-51.9-47.16h-215.4c-15.2 0-27.9 4.05-38.1 12.18-10.2 8.12-15.3 19.52-15.3 34.2 0 30.38 17.5 45.59 52.6 45.59h61.3"
        fill="#bbd5fc" />
      <path
        d="m15447 7651.8h-4102.3c-42.1 0-76.5 34.4-76.5 76.6v39.2c0 42.1 34.4 76.6 76.5 76.6h4102.3c42.1 0 76.6-34.5 76.6-76.6v-39.2c0-42.2-34.5-76.6-76.6-76.6"
        fill="#d2e4fd" />
      <path
        d="m13859 7328h-2530.7c-33.2 0-60.4 27.2-60.4 60.5v71.5c0 33.3 27.2 60.5 60.4 60.5h2530.7c33.2 0 60.4-27.2 60.4-60.5v-71.5c0-33.3-27.2-60.5-60.4-60.5"
        fill="#d2e4fd" />
      <path
        d="m11088 7367.3c0-26.2-18.3-39.3-54.9-39.3h-227.8c-32.9 0-49.4 13.2-49.4 39.6 0 8.4 4.4 18.1 13.2 29.2 13 14.8 32 37.1 57 66.7 38 47.7 69.7 88.9 95.2 123.7 8.8 11.5 21.3 29.1 37.5 52.8 13.4 23.6 20.1 43.5 20.1 59.7 0 18.1-5.8 33-17.3 44.8-11.6 11.8-26.4 17.7-44.5 17.7-17.6 0-32.9-5.5-45.9-16.6-8.8-7.5-15.7-21.3-20.8-41.7-6.5-26.4-10.6-41.7-12.5-45.9-6.9-14.8-18.3-22.2-34-22.2-13.9 0-24.8 5.1-32.7 15.3-7.4 8.8-11.1 20.4-11.1 34.7 0 16.2 2.5 32.7 7.6 49.3 11.2 35.7 30.8 63 59.1 82 26.8 18.1 59.5 27.1 97.9 27.1 42.2 0 77.4-12.8 105.6-38.3 29.2-26.9 43.8-61.2 43.8-102.9 0-31.1-10.4-63.1-31.3-96.1-11.5-18.1-35.4-50.1-71.5-96-18.5-23.7-47.7-58-87.5-103h150c36.1 0 54.2-13.5 54.2-40.6"
        fill="#d2e4fd" />
      <path
        d="m15447 5961.3h-4102.3c-42.1 0-76.5 34.5-76.5 76.6v39.3c0 42.1 34.4 76.6 76.5 76.6h4102.3c42.1 0 76.6-34.5 76.6-76.6v-39.3c0-42.1-34.5-76.6-76.6-76.6"
        fill="#d2e4fd" />
      <path
        d="m13859 5637.6h-2530.7c-33.2 0-60.4 27.2-60.4 60.4v71.6c0 33.2 27.2 60.4 60.4 60.4h2530.7c33.2 0 60.4-27.2 60.4-60.4v-71.6c0-33.2-27.2-60.4-60.4-60.4"
        fill="#d2e4fd" />
      <path
        d="m11088 5798.8c0-49.2-17.3-88.8-51.8-118.6-32.7-28.4-74.1-42.6-124.3-42.6-38.8 0-72 9.2-99.4 27.7-43.6 29.3-65.4 64.6-65.4 105.8 0 11.8 3.8 22 11.4 30.5s17.3 12.8 29.1 12.8c12.3 0 23.9-8.3 34.8-24.8 17.5-27.5 27.7-42.7 30.6-45.5 15.6-16.6 35.7-24.8 60.3-24.8 33.2 0 56.8 12.3 71 36.9 6.6 12.3 10 27.9 10 46.9 0 46.3-27.3 72.1-81.7 77.3-30.8 2.9-46.2 15.9-46.2 39.1 0 17 9 29.1 26.8 36.2 33.4 12.3 50.4 18.7 50.8 19.2 17.9 11.8 26.8 32.4 26.8 61.8 0 17.5-5.2 31.3-15.5 41.5-10.4 10.2-24.3 15.3-41.8 15.3-21.7 0-38.7-5.2-50.9-15.6-10.4-9-19.2-24.4-26.2-46.2-5.7-16.6-16.5-24.8-32.6-24.8-11.3 0-20.6 4.9-27.9 14.9-7.3 9.9-11 20.8-11 32.6 0 14.7 4 29.4 12.1 44.1 13.2 24.6 33.6 43.7 61 57.5 25.1 12.8 52.6 19.1 82.4 19.1 40.2 0 73.7-12.1 100.5-36.5 26.7-24.4 40.1-56.5 40.1-96.2 0-47.9-19.9-85.7-59.6-113.7 57.7-23.2 86.6-66.5 86.6-129.9"
        fill="#d2e4fd" />
      <path
        d="m14969 11363h-2555.6c-43.7 0-79.5 35.7-79.5 79.5v64.5c0 43.7 35.8 79.5 79.5 79.5h2555.6c43.7 0 79.5-35.8 79.5-79.5v-64.5c0-43.8-35.8-79.5-79.5-79.5"
        fill="#bbd5fc" />
      <path
        d="m15635 11018h-3888.3c-53.7 0-97.6 43.9-97.6 97.5v28.5c0 53.6 43.9 97.5 97.6 97.5h3888.3c53.6 0 97.5-43.9 97.5-97.5v-28.5c0-53.6-43.9-97.5-97.5-97.5"
        fill="#bbd5fc" />
      <g transform="scale(1.0158)">
        <path
          d="m13184 8506.7c-829.7 0-1617 104.11-2203.8 252.91-593 150.33-912.4 396.04-912.4 613.98 0 197.52 260.3 379.19 752.7 525.36-471.9-140.09-724.3-345.79-724.3-525.36 0-199.27 327.2-396.52 897.6-541.14 584.9-148.27 1362.6-229.94 2190.2-229.94 827.4 0 1605.3 81.67 2190.1 229.94 570.4 144.62 897.5 341.87 897.5 541.14 0 211.03-344.4 473.3-899 684.41-630.5 240.1-1407.8 329.2-2188.6 329.2-1466 0-2069.4-171.1-2593.1-385.6 525.9 215.4 1121.9 459.5 2593.1 459.5 783.9 0 1564.5-132.8 2198.1-374 566.2-215.66 918-489.04 918-713.51 0-217.94-326.6-420.75-919.5-571.09-586.9-148.79-1367-295.8-2196.6-295.8"
          fill="#c65447" />
      </g>
      <g transform="scale(1.1355)">
        <path
          d="m16300 5869.8s-24.5-237.6-51.3-282.52c-26.8-45-140.9-188.55-189.6-216.73-48.6-28.18 29.7 189.17 19.9 231.53-10 42.27-40.1-77.24-61.5-80.05-21.5-2.82-16 104.8-16.7 143.9-0.8 39.18 104.2 135.8 141.3 219.1 37 83.32 157.9-15.23 157.9-15.23"
          fill="#ffb27d" />
      </g>
      <path
        d="m15194 9153.3-62 116.97s30.8 208.47-230.4 340.33c0 0-95.5 38.87-149.4-38.99-49.6-71.72 94.6-58.76 86.9-181.44-7.8-122.68 50.5-194.67 131.5-234.63l67-77.61 156.4 75.37"
        fill="#ffb27d" />
      <g transform="scale(1.0836)">
        <path
          d="m16300 8705.2s-207-1015.9-1346.1-1348c-355.6-103.64-1163.4 1067.1-1163.4 1067.1s28.3 107.92 206.3 83.13c0 0 786.6-520.74 885.6-577.31 87.9-50.19 665.8 645.25 929.1 757.44 263.5 112.17 488.5 17.61 488.5 17.61"
          fill="#e58638" />
      </g>
      <path d="m15524 9473.4-35-227.88-1146.3 176.06 35 227.88 1146.3-176.06" fill="#c65447" />
      <path d="m14094 9576.5 249-154.87 35 227.88z" fill="#ffb27d" />
      <path
        d="m15646 9377.4-11.1-72.05c-6.8-44.31-48.3-74.71-92.6-67.91l-53 8.14 35 227.88 57.7-8.86c41.7-6.42 70.4-45.46 64-87.2"
        fill="#ffb27d" />
      <g transform="scale(1.1834)">
        <path
          d="m16171 2122.8s129.4-118.04 104.2-201.96c-25.2-83.91-142-139.85-157.8-242.35-15.7-102.58-78.9-158.52-135.7-158.52h-270.9s-41.8 72.16 59.2 93.88c101 21.8 139.1 142.3 132.8 254.18s9.5 261.02 9.5 261.02l214.5 49.69 44.2-55.94"
          fill="#233862" />
      </g>
      <g transform="scale(1.0604)">
        <path
          d="m16274 2028.1s25.8-299.87-37.6-331.08l-811.2 1.6s0 93.64 130.2 114.48c130.3 20.84 359.3 97.13 398 267.06 38.8 169.93 320.6-52.06 320.6-52.06"
          fill="#233862" />
      </g>
      <g transform="scale(1.092)">
        <path
          d="m15139 6083.7s41.6-510.54 90.4-1124.2c66.4-833.62 146.2-1857.6 154.1-2051.6 13.7-336.91 68.4-875.74 68.4-875.74s130-127.94 390-74c0 0 231.6 769.15 297.9 1583 1 13.28 2 26.74 3 40.2 61.6 828.49 157.3 2573 157.3 2573l-1161.1-70.69"
          fill="#2b478b" />
      </g>
      <g transform="scale(1.092)">
        <path
          d="m15139 6083.7s41.6-510.54 90.4-1124.2l910.4-1418.3c1 13.28 2 26.74 3 40.2 61.6 828.49 157.3 2573 157.3 2573l-1161.1-70.69"
          fill="#233862" />
      </g>
      <g transform="scale(1.174)">
        <path
          d="m14258 5602.2s696.8-1719.7 1154.9-2527.9c458-808.24 601.2-1033.7 601.2-1033.7s262.5 103.32 286.3 173.85c0 0-175.2 1560.2-481.9 1940.5-173.4 214.9-377 859.87-386.6 1085.4-9.5 225.55-62 671.96-62 671.96l-1111.9-310.13"
          fill="#2b478b" />
      </g>
      <g transform="scale(1.0929)">
        <path
          d="m16300 8864.6s-506.3-244.33-798.3-153.67c0 0 71.8 90.64 197.6 158.09-10.1 58.6-17.9 109.45-22.5 152.56-12.3 99.52-12.3 155.89-12.3 155.89l195.3 153.66 185.3 147.04c-14.6-413.47 254.9-613.57 254.9-613.57"
          fill="#ffb27d" />
      </g>
      <g transform="scale(1.1109)">
        <path
          d="m16299 6155c1.2-30.42-64-65.26-92.7-78.31-213.2-93.53-412.1-158.79-637.4-180.48-266.2-27.19-581 32.59-689.3 30.42-11 0-20.9 4.32-29.7 11.98-7.8 5.4-13.4 326.31-7.8 729.76 0 16.38 0 32.68 1.1 48.97v5.49c2.2 157.71 7.7 322.98 15.5 488.34 15.5 363.27 44.1 713.49 92.7 907.09 58.6 228.41 191.1 379.59 311.5 489.45l99.4 87.02c99.5-19.59 204.4-14.15 309.3 36.96 114.9 55.49 238.6 115.3 258.5 100.09 150.3-109.85 251.9-356.76 306-672.19 30.9-181.64 46.4-385.04 45.3-598.21 0-78.27-2.3-158.84-6.7-238.23-26.4-430.64 0-804.84 15.5-1021.2 4.4-63.1 7.7-112.07 8.8-146.91"
          fill="#ee9849" />
      </g>
      <g transform="scale(1.1102)">
        <path
          d="m16300 6178.6c-1745.5 3.52-321.9 1894.2-321.9 1894.2l282.8 91.84c22.3-194.18 33.5-411.61 32.7-639.51 0-83.68-1.5-169.79-4.8-254.64-19.2-460.44 0-860.45 11.2-1091.8"
          fill="#e58638" />
      </g>
      <g transform="scale(1.0761)">
        <path d="m16300 9466.2s-130-236.91-377.5-303.17c-12.5 101.07-12.5 158.32-12.5 158.32l198.4 156.08 191.6-11.23"
          fill="#ed985f" />
      </g>
      <g transform="scale(1.0891)">
        <path
          d="m15631 9217s484.7-79.3 530.3 218.72c45.4 298.03 138.7 488.52-168.9 551.73-307.6 63.26-385.3-41.55-425.1-137.39-39.7-95.84-61.3-604.76 63.7-633.06"
          fill="#ffb27d" />
      </g>
      <g transform="scale(1.0944)">
        <path
          d="m16257 9973.7c4.4 5.01 14.4 9.06 36.9 10.29 0 0-17.9 11.24-42 11.84-4.7 31.28-21.3 86.58-75.1 99.98 0 0 28.9-15.4 32.7-48.6-62.4 64-195.8 110.6-565.5 81.4-487.2-38.5-326.7-350.42-263.6-387.61 63.1-37.18 221.8 64.76 339.4 55.44 117.5-9.33 139.8-179.15 179.7-202.45s24.2 17.9 78.2 42.28c53.9 24.38 59-65 43.4-123.12-15.6-58.1 58.5-134.77 58.5-134.77l74.9 80.67c75 80.66 145.6 422.32 111.5 495.14-3 6.45-6 12.95-9 19.51"
          fill="#2c3a64" />
      </g>
      <g transform="scale(1.1496)">
        <path
          d="m15394 8537.3s290.6-137.61 429.9-349.15c216.1-328.13 466.7-1524 471.3-1634.8 4.6-110.73-182.9-892.51-182.9-892.51s-190.1 12.52-239.2 108.47c0 0 38 803.27 13.9 854.94-24 51.68-792.6 1077.5-706.2 1296.5 86.4 218.91 213.2 616.57 213.2 616.57"
          fill="#ee9849" />
      </g>
      <path
        d="m15131 9275.8s18.1 71.75-31.7 104c-49.7 32.26-95.5 119.97-116.5 108.09-43.5-24.61 23.8-101.15 11.5-196.62-4.3-33.43 73.5-121.03 136.7-15.47"
        fill="#ffb27d" />
      <path d="m7014.4 2480.6s-784.65 2009.2-1335 1689.3c-550.29-320 1335-1689.3 1335-1689.3" fill="#a8d29f" />
      <path d="m6626.5 2480.6s-1036.6 895.8-1510.1 729.5c-473.52-166.4 1510.1-729.5 1510.1-729.5" fill="#a8d29f" />
      <g transform="scale(1.1289)">
        <path d="m15592 1941s211.6 735.74 459.8 648.93c248.3-86.81-459.8-648.93-459.8-648.93" fill="#a8d29f" />
      </g>
      <g transform="scale(1.1471)">
        <path d="m15535 1949.7s531.6 348.96 648.4 241.13c116.8-107.92-648.4-241.13-648.4-241.13" fill="#a8d29f" />
      </g>
      <path
        d="m15736 4015h-4756.7c-31.9 0-57.9 26-57.9 57.9 0 31.8 26 57.8 57.9 57.8h4756.7c31.8 0 57.9-26 57.9-57.8 0-31.9-26.1-57.9-57.9-57.9"
        fill="#d2e4fd" />
      <path
        d="m15736 3783.3h-4756.7c-31.9 0-57.9 26-57.9 57.9 0 31.8 26 57.8 57.9 57.8h4756.7c31.8 0 57.9-26 57.9-57.8 0-31.9-26.1-57.9-57.9-57.9"
        fill="#d2e4fd" />
      <path
        d="m15736 3526.5h-4756.7c-31.9 0-57.9 26-57.9 57.9 0 31.8 26 57.9 57.9 57.9h4756.7c31.8 0 57.9-26.1 57.9-57.9 0-31.9-26.1-57.9-57.9-57.9"
        fill="#d2e4fd" />
      <path
        d="m15112 3269.7h-4136.1c-29.7 0-54 24.4-54 54.1v7.7c0 29.7 24.3 54 54 54h4136.1c29.7 0 54.1-24.3 54.1-54v-7.7c0-29.7-24.4-54.1-54.1-54.1"
        fill="#d2e4fd" />
      <g transform="scale(1.5836)">
        <path
          d="m16286 1110.4h-14896c-7.99 0-14.53 6.5-14.53 14.52v2.71c0 7.96 6.54 14.53 14.53 14.53h14896c8 0 14.5-6.57 14.5-14.53v-2.71c0-8.02-6.5-14.52-14.5-14.52"
          fill="#1c468a" />
      </g>
    </g>
  </g>
</svg>