<svg id="b2c7d13c-cf19-4853-8e1a-27f628056126" data-name="Layer 1" xmlns="http://www.w3.org/2000/svg" width="100%"
    height="100%" viewBox="0 0 600 600" class='svgicon'>

  <g transform="matrix(1 0 0 -1 0 400)">
    <g transform="scale(.1)">
      <path d="m0 0h5e3v5e3h-5e3z" fill="#F3F3F6" />
      <path
        d="m4596.6 1485.1c-36.67 94.19-64.05 194.16-93.97 299.75-20.16 71.16-52.66 150.78-123.13 173.21-68.55 21.82-142.37-23.4-184.53-81.68-42.17-58.28-63.41-128.95-99.48-191.2-65.36-112.81-181.14-160.09-276.82-60.91-136.68 141.67-198.2 334.78-284.87 507.58-62.93 125.45-115.58 272.31-194.86 387.93-120.89 176.31-286.65 326.64-507.08 326.64-139.73-21.17-262.84-144.93-346.17-299.59-83.32-154.66-131.92-338.6-173.34-522.09-75.33-333.7-130.52-675.14-185.63-1016.1l2781.2 32.44c-11.05-0.13-79.25 91.01-92.31 103.65-106.79 103.32-170.87 216.9-218.97 340.41"
        fill="#d1e4eb" />
      <path
        d="m4068.7 1326.1c-5.45-108.11-123.09-297.12-231.2-291.67-108.12 5.45-165.76 203.3-160.31 311.41s120.58 649.13 228.7 643.68c108.11-5.45 168.26-555.3 162.81-663.42"
        fill="#5f9cd9" />
      <path
        d="m3896.3 1919.5-54.52-876.12c-0.14-2.39 1.67-4.45 4.06-4.6 2.4-0.15 4.45 1.67 4.6 4.06l54.52 876.13c0.14 2.39-1.67 4.44-4.06 4.59s-4.45-1.66-4.6-4.06"
        fill="#255cb2" />
      <path
        d="m3821.2 1348.6c-24.63-54.09-43.36-110.84-54.7-169.95-5.75-29.98-9.36-62.46 4.2-89.81 14.82-29.86 47.7-47.26 80.6-52.67 80.36-13.19 160.74 36.03 207.84 102.46s67.5 147.63 86.23 226.88c14.73 62.4 29.22 125.73 57 183.88 11.91 24.93 81.66 121.16 48.67 146.12-45.13 35.46-175.76-3.11-259.47-94.49-68.95-75.27-128.27-159.94-170.37-252.42"
        fill="#fabb43" />
      <path
        d="m3855.5 1035.1s0.37 1.43 1.13 4.23c11.36 41.97 110.49 386.17 328.87 588 1.76 1.63 1.87 4.37 0.24 6.13s-4.37 1.87-6.13 0.24c-235.48-217.98-332.35-596.13-332.51-596.45-0.6-2.32 0.8-4.68 3.12-5.28 2.32-0.59 4.68 0.81 5.28 3.13"
        fill="#5f9cd9" />
      <path
        d="m4389.5 1437.7c-8.31-14.89-23.87-25.03-38-32.99-17.42-9.82-35.98-18.44-53.91-26.79-23.03-10.71-46.85-21.79-68.83-35.59-16.03-10.08-30.26-21.44-42.21-33.63 18.87 42.88 40.92 80.32 66.91 113.79 34.21 44.03 69.32 66.34 104.4 66.34l2.44-0.04c10.85-0.31 19.29-3 25.1-7.99 11.92-10.24 11.45-29.96 4.1-43.1"
        fill="#255cb2" />
      <path
        d="m4428.7 1193.5c-13.88-9.89-32.29-12.4-48.47-13.55-19.94-1.42-40.4-1.27-60.18-1.14-25.4 0.17-51.66 0.35-77.44-2.73-18.81-2.24-36.53-6.42-52.54-12.32 35.41 30.68 71.36 55.08 109.16 74.21 49.76 25.16 91.04 30.3 122.75 15.29l2.18-1.08c9.68-4.92 16.16-10.97 19.28-17.96 6.38-14.36-2.48-31.98-14.74-40.72"
        fill="#255cb2" />
      <path
        d="m4336.2 1073.3c-11.54 1.59-21.87 8.97-30.46 15.98-10.58 8.64-20.69 18.31-30.47 27.64-12.55 11.99-25.52 24.39-39.78 34.94-10.41 7.69-21.18 13.92-31.91 18.5 31.99-1.34 61.3-6.05 89.07-14.26 36.54-10.81 59.48-27.6 68.21-49.93l0.58-1.56c2.51-6.98 2.9-13.02 1.17-17.97-3.55-10.13-16.22-14.74-26.41-13.34"
        fill="#255cb2" />
      <path
        d="m4077.1 1034s0.01 0.8 0.08 2.49c1.18 25.37 18.19 238.5 281.58 421.66 1.77 1.23 2.21 3.66 0.98 5.43s-3.66 2.21-5.43 0.98c-283.52-197.07-285.06-429.82-285.01-430.53-0.01-2.15 1.73-3.9 3.89-3.91 2.15-0.01 3.9 1.72 3.91 3.88"
        fill="#20254d" />
      <path
        d="m4076.7 1032.4s0.3 0.64 0.97 1.96c5.03 9.9 29.87 55.37 80.62 98.24 50.78 42.87 127.32 83.2 236.45 83.22 2.15 0 3.9 1.75 3.9 3.9s-1.75 3.9-3.9 3.9c-118.51 0.02-199.96-46.93-251.5-93.85-51.58-46.93-73.46-93.77-73.61-94.08-0.91-1.95-0.07-4.27 1.88-5.18 1.96-0.91 4.28-0.07 5.19 1.89"
        fill="#20254d" />
      <path
        d="m4201.3 1164.2 0.11 0.01 0.59 0.01c6.05-0.01 50.68-2.36 137.16-67.58 1.72-1.3 4.16-0.96 5.46 0.76s0.95 4.16-0.77 5.46c-87.39 65.94-133.7 69.16-141.85 69.15l-1.27-0.03c-2.15-0.16-3.76-2.03-3.6-4.18 0.16-2.14 2.02-3.76 4.17-3.6"
        fill="#20254d" />
      <path
        d="m1648 1032c-65.25 246.59-130.85 493.3-207.55 732.12-43.24 134.66-90.96 268.81-157.25 376.54s-154.11 187.22-242.26 186.67c-135.86-26.29-223.49-160.43-280.96-308.98-37.688-97.42-55.957-215.43-82.618-318.38-36.726-141.8-55.988-296.05-126.54-420.14-49.386-86.86-125.31-64.7-176.48 13.34-28.238 43.06-48.152 94.29-79.77 133.61-31.617 39.31-81.472 64.91-121.61 40.14-41.266-25.47-53.605-89.92-59.16-146.46-8.238-83.91-15.453-163.23-28.961-239.26-2.9414-16.56-6.2148-32.94-9.8281-49.2h1573"
        fill="#d1e4eb" />
      <path
        d="m1064.7 1372.4c-40.76 47.01-92.351 87.57-108.62 146.9-11.887 43.35-2.508 89.22 2.133 133.92 4.64 44.71 3.011 94.14-25.907 128.55-23.832 28.35-61.472 40.66-97.683 48.45-36.207 7.78-73.996 12.7-106.12 31.12-52.176 29.91-41.781 80.8-69.789 125.44-31.43 50.08-104.56 113.96-167.24 80.7-66.378-35.22-55.863-142.17-11.707-189.39 29.29-31.32 66.79-61.37 71.098-104.03 6.488-64.24-67.109-122.07-46.863-183.38 14.953-45.28 72.027-60.85 100.22-99.31 27.886-38.06 22.269-91.38 5.851-135.61-16.422-44.22-42.281-85.12-52.492-131.17-20.902-94.25 53.043-159.37 137.3-180.39 77.422-19.3 244.41-10.19 244.41-10.19 59.59 20.84 125.66 73.19 158.42 130.39 24.75 43.21 28.18 98 9 143.96-9.88 23.69-25 44.42-42.01 64.04"
        fill="#fabb43" />
      <path
        d="m561.49 1963.2s1.086-1.68 3.168-5c31.266-49.81 283.25-465.16 312.16-921.99 0.176-2.76 2.551-4.85 5.305-4.68 2.758 0.18 4.852 2.56 4.676 5.31-31.207 490.69-316.75 931.43-316.91 931.8-1.5 2.31-4.598 2.98-6.914 1.48-2.321-1.5-2.985-4.6-1.481-6.92"
        fill="#5f9cd9" />
      <path
        d="m311.74 1371.9c4.395 3.77 10.782 5.81 18.989 6.04l1.836 0.03c26.531 0 53.078-16.86 78.945-50.16 19.648-25.3 36.32-53.62 50.597-86.04-9.039 9.22-19.796 17.8-31.921 25.42-16.625 10.45-34.633 18.82-52.043 26.92-13.559 6.31-27.59 12.83-40.762 20.25-10.688 6.02-22.457 13.69-28.738 24.95-5.555 9.94-5.911 24.85 3.097 32.59"
        fill="#5f9cd9" />
      <path
        d="m267.86 1185.4c2.36 5.29 7.262 9.86 14.575 13.58l1.652 0.81c23.976 11.36 55.187 7.47 92.812-11.55 28.59-14.47 55.774-32.92 82.547-56.12-12.113 4.46-25.511 7.62-39.73 9.32-19.492 2.33-39.352 2.19-58.555 2.06-14.953-0.1-30.426-0.21-45.508 0.86-12.23 0.87-26.152 2.77-36.648 10.25-9.27 6.61-15.973 19.93-11.145 30.79"
        fill="#5f9cd9" />
      <path
        d="m328.98 1073.8c-1.309 3.73-1.012 8.3 0.878 13.58l0.442 1.18c6.605 16.89 23.945 29.58 51.574 37.75 20.996 6.21 43.164 9.77 67.356 10.78-8.118-3.45-16.258-8.16-24.129-13.98-10.782-7.98-20.594-17.36-30.086-26.42-7.391-7.06-15.035-14.36-23.035-20.9-6.493-5.3-14.305-10.88-23.032-12.08-7.707-1.06-17.285 2.43-19.968 10.09"
        fill="#5f9cd9" />
      <path
        d="m551.73 1034.1c0.059 0.71-1.218 177.09-215.91 326.31-1.769 1.23-4.199 0.8-5.429-0.97-1.231-1.77-0.793-4.2 0.976-5.43 106.11-73.78 159.16-153.91 185.79-215.54 13.313-30.82 20.008-57.01 23.371-75.46 1.684-9.22 2.535-16.51 2.965-21.46 0.215-2.48 0.324-4.37 0.379-5.64 0.055-1.26 0.055-1.84 0.059-1.84 7e-3 -2.16 1.761-3.89 3.917-3.88 2.153 0.01 3.891 1.76 3.879 3.91"
        fill="#20254d" />
      <path
        d="m551.37 1035.7c-0.144 0.3-16.742 35.83-55.875 71.44-39.105 35.6-100.94 71.23-190.81 71.21-2.153 0-3.899-1.75-3.899-3.9s1.746-3.9 3.899-3.9c87.754-0.02 147.5-34.59 185.56-69.18 19.02-17.3 32.574-34.61 41.352-47.57 4.39-6.47 7.586-11.86 9.672-15.61 1.047-1.87 1.812-3.34 2.316-4.33 0.504-0.98 0.719-1.45 0.723-1.45 0.91-1.95 3.23-2.8 5.179-1.89 1.954 0.91 2.797 3.23 1.883 5.18"
        fill="#20254d" />
      <path
        d="m451.46 1139.3-1.035 0.03c-6.414 0-41.645-2.54-107.84-52.48-1.719-1.3-2.063-3.75-0.766-5.46 1.297-1.72 3.742-2.07 5.461-0.77 65.278 49.24 98.824 50.91 103.14 50.91l0.414-0.01h0.066l0.078 1.41-0.105-1.41h0.027l0.078 1.41-0.105-1.41c2.144-0.16 4.019 1.45 4.18 3.6 0.16 2.14-1.45 4.02-3.598 4.18"
        fill="#20254d" />
      <path
        d="m2837.4 1034h-1881.6c-52.184 0-94.488 42.3-94.488 94.49v2551.5c0 52.19 42.304 94.49 94.488 94.49h1881.6c52.18 0 94.49-42.3 94.49-94.49v-2551.5c0-52.19-42.31-94.49-94.49-94.49"
        fill="#5f9cd9" />
      <path
        d="m861.31 3106.9v-1978.4c0-52.19 42.304-94.49 94.492-94.49h1881.6c52.18 0 94.49 42.3 94.49 94.49v390.45l-2070.6 1587.9"
        fill="#4a73c2" />
      <path
        d="m2773 1160.5h-1752.7c-21.328 0-38.617 17.29-38.617 38.62v2410.4c0 21.33 17.289 38.62 38.617 38.62h1752.7c21.32 0 38.61-17.29 38.61-38.62v-2410.4c0-21.33-17.29-38.62-38.61-38.62"
        fill="#f0f1f2" />
      <path
        d="m2053.6 3826.3c0.13 2.58 0.4 5.13 0.4 7.75 0 86.9-70.46 157.36-157.36 157.36-86.91 0-157.36-70.46-157.36-157.36 0-2.62 0.27-5.17 0.39-7.75h-231.33v-239.88h776.6v239.88h-231.34"
        fill="#255cb2" />
      <path d="m1508.3 3826.3v-239.88h776.6z" fill="#2e6cbe" />
      <path
        d="m1985 3834c0-48.8-39.56-88.36-88.36-88.36s-88.36 39.56-88.36 88.36 39.56 88.36 88.36 88.36 88.36-39.56 88.36-88.36"
        fill="#4a73c2" />
      <path d="m1834.1 3896.5c-34.51-34.51-34.51-90.46 0-124.96 34.5-34.51 90.45-34.51 124.96 0l-124.96 124.96"
        fill="#5f9cd9" />
      <path d="m1508.3 3569.9h776.6v16.52h-776.6z" fill="#b2d6f0" />
      <path d="m1487.6 2959.6v5h-289.55v284.55h284.55v-289.55h5v5-5h5v299.55h-304.55v-304.55h304.55v5h-5"
        fill="#255cb2" />
      <path d="m1266.9 3076.1 103.77-81.47 195.68 188.52-27.76 28.81-170.6-164.37-76.38 59.97-24.71-31.46"
        fill="#f0f1f2" />
      <path d="m1246.9 3096.1 103.77-81.47 195.68 188.52-27.76 28.81-170.6-164.37-76.38 59.97-24.71-31.46"
        fill="#f2566e" />
      <path
        d="m2588.8 3170.6h-959.78c-6.26 0-11.33 5.08-11.33 11.34s5.07 11.34 11.33 11.34h959.78c6.27 0 11.34-5.08 11.34-11.34s-5.07-11.34-11.34-11.34"
        fill="#5f9cd9" />
      <path
        d="m2588.8 3120.6h-959.78c-6.26 0-11.33 5.08-11.33 11.34s5.07 11.33 11.33 11.33h959.78c6.27 0 11.34-5.07 11.34-11.33s-5.07-11.34-11.34-11.34"
        fill="#5f9cd9" />
      <path
        d="m2588.8 3070.6h-959.78c-6.26 0-11.33 5.07-11.33 11.33 0 6.27 5.07 11.34 11.33 11.34h959.78c6.27 0 11.34-5.07 11.34-11.34 0-6.26-5.07-11.33-11.34-11.33"
        fill="#5f9cd9" />
      <path
        d="m2588.8 3020.6h-959.78c-6.26 0-11.33 5.07-11.33 11.33s5.07 11.34 11.33 11.34h959.78c6.27 0 11.34-5.08 11.34-11.34s-5.07-11.33-11.34-11.33"
        fill="#5f9cd9" />
      <path d="m1487.6 2485.5v5h-289.55v284.54h284.55v-289.54h5v5-5h5v299.54h-304.55v-304.54h304.55v5h-5"
        fill="#255cb2" />
      <path d="m1266.9 2601.9 103.77-81.46 195.68 188.52-27.76 28.8-170.6-164.36-76.38 59.97-24.71-31.47"
        fill="#f0f1f2" />
      <path d="m1246.9 2621.9 103.77-81.46 195.68 188.52-27.76 28.8-170.6-164.36-76.38 59.97-24.71-31.47"
        fill="#f2566e" />
      <path
        d="m2588.8 2696.4h-959.78c-6.26 0-11.33 5.07-11.33 11.33s5.07 11.34 11.33 11.34h959.78c6.27 0 11.34-5.08 11.34-11.34s-5.07-11.33-11.34-11.33"
        fill="#5f9cd9" />
      <path
        d="m2588.8 2646.4h-959.78c-6.26 0-11.33 5.08-11.33 11.34s5.07 11.34 11.33 11.34h959.78c6.27 0 11.34-5.08 11.34-11.34s-5.07-11.34-11.34-11.34"
        fill="#5f9cd9" />
      <path
        d="m2588.8 2596.4h-959.78c-6.26 0-11.33 5.08-11.33 11.34s5.07 11.34 11.33 11.34h959.78c6.27 0 11.34-5.08 11.34-11.34s-5.07-11.34-11.34-11.34"
        fill="#5f9cd9" />
      <path
        d="m2588.8 2546.4h-959.78c-6.26 0-11.33 5.08-11.33 11.34s5.07 11.33 11.33 11.33h959.78c6.27 0 11.34-5.07 11.34-11.33s-5.07-11.34-11.34-11.34"
        fill="#5f9cd9" />
      <path d="m1487.6 2011.3v5h-289.55v284.55h284.55v-289.55h5v5-5h5v299.55h-304.55v-304.55h304.55v5h-5"
        fill="#255cb2" />
      <path d="m1266.9 2127.8 103.77-81.47 195.68 188.52-27.76 28.81-170.6-164.37-76.38 59.97-24.71-31.46"
        fill="#f0f1f2" />
      <path d="m1246.9 2147.8 103.77-81.47 195.68 188.52-27.76 28.81-170.6-164.37-76.38 59.97-24.71-31.46"
        fill="#f2566e" />
      <path
        d="m2588.8 2222.2h-959.78c-6.26 0-11.33 5.08-11.33 11.34s5.07 11.34 11.33 11.34h959.78c6.27 0 11.34-5.08 11.34-11.34s-5.07-11.34-11.34-11.34"
        fill="#5f9cd9" />
      <path
        d="m2588.8 2172.2h-959.78c-6.26 0-11.33 5.08-11.33 11.34s5.07 11.33 11.33 11.33h959.78c6.27 0 11.34-5.07 11.34-11.33s-5.07-11.34-11.34-11.34"
        fill="#5f9cd9" />
      <path
        d="m2588.8 2122.2h-959.78c-6.26 0-11.33 5.07-11.33 11.33 0 6.27 5.07 11.34 11.33 11.34h959.78c6.27 0 11.34-5.07 11.34-11.34 0-6.26-5.07-11.33-11.34-11.33"
        fill="#5f9cd9" />
      <path
        d="m2588.8 2072.2h-959.78c-6.26 0-11.33 5.07-11.33 11.33s5.07 11.34 11.33 11.34h959.78c6.27 0 11.34-5.08 11.34-11.34s-5.07-11.33-11.34-11.33"
        fill="#5f9cd9" />
      <path d="m1487.6 1537.1v5h-289.55v284.54h284.55v-289.54h5v5-5h5v299.54h-304.55v-304.54h304.55v5h-5"
        fill="#255cb2" />
      <path d="m1266.9 1653.6 103.77-81.46 195.68 188.52-27.76 28.8-170.6-164.36-76.38 59.97-24.71-31.47"
        fill="#f0f1f2" />
      <path d="m1246.9 1673.6 103.77-81.46 195.68 188.52-27.76 28.8-170.6-164.36-76.38 59.97-24.71-31.47"
        fill="#f2566e" />
      <path
        d="m2588.8 1748h-959.78c-6.26 0-11.33 5.07-11.33 11.33s5.07 11.34 11.33 11.34h959.78c6.27 0 11.34-5.08 11.34-11.34s-5.07-11.33-11.34-11.33"
        fill="#5f9cd9" />
      <path
        d="m2588.8 1698h-959.78c-6.26 0-11.33 5.08-11.33 11.34s5.07 11.34 11.33 11.34h959.78c6.27 0 11.34-5.08 11.34-11.34s-5.07-11.34-11.34-11.34"
        fill="#5f9cd9" />
      <path
        d="m2588.8 1648h-959.78c-6.26 0-11.33 5.08-11.33 11.34s5.07 11.34 11.33 11.34h959.78c6.27 0 11.34-5.08 11.34-11.34s-5.07-11.34-11.34-11.34"
        fill="#5f9cd9" />
      <path
        d="m2588.8 1598h-959.78c-6.26 0-11.33 5.08-11.33 11.34s5.07 11.33 11.33 11.33h959.78c6.27 0 11.34-5.07 11.34-11.33s-5.07-11.34-11.34-11.34"
        fill="#5f9cd9" />
      <path
        d="m83.762 1030.2h4841.2c2.16 0 3.9 1.74 3.9 3.9 0 2.15-1.74 3.89-3.9 3.89h-4841.2c-2.1523 0-3.8984-1.74-3.8984-3.89 0-2.16 1.7461-3.9 3.8984-3.9"
        fill="#20254d" />
      <path d="m3180.3 1067.2h-45.62v56.21h45.62v-56.21" fill="#f2566e" />
      <path d="m3135 1079.9 23.88-7.36 22.16 7.36 19.9-45.61h-184.45l69.34 22.8 49.17 22.81" fill="#20254d" />
      <path d="m3613.1 1067.2h45.62l-16.97 56.21h-45.62l16.97-56.21" fill="#f2566e" />
      <path d="m3654.6 1079.9-23.88-7.36-22.16 7.36-19.9-45.61h184.45l-69.34 22.8-49.17 22.81" fill="#20254d" />
      <path
        d="m3032.2 3024c-6.18-4.72-62.32-37.88-62.32-37.88l-39.84 51.01 11.86 58.16 85.74-5.34 15.01-43.42c3.56-10.3-2.79-16.68-10.45-22.53"
        fill="#f57378" />
      <path
        d="m3027.7 3090 12.94-38.05-39.55-15.93c-7.53-3.27-15.95-3.88-23.88-1.75-17.44 4.69-28.77 21.5-26.59 39.43l2.56 20.92 74.52-4.62"
        fill="#f24f66" />
      <path
        d="m3008.3 3039.1 34.29-5 18.78 32.18c3.66 5.81 1.92 13.49-3.89 17.15-5.81 3.67-13.49 1.93-17.15-3.88l-32.03-40.45"
        fill="#f2566e" />
      <path d="m2946.6 2900.4-70.69-17.87-25.29-204.7 82.76-3.37 13.22 225.94" fill="#fff" />
      <path
        d="m3911.7 2735.4-123.57 15.56 28.28 224.65 123.57-15.56c62.03-7.81 105.99-64.43 98.18-126.46v-0.01c-7.81-62.03-64.43-105.99-126.46-98.18"
        fill="#f57378" />
      <path
        d="m3959 2739.5c33.75 10.37 61.39 36.23 73.47 70.26-12.08-34.03-39.72-59.89-73.47-70.26m79.13 94.13c0.02 0.11 0.03 0.21 0.04 0.32-0.01-0.11-0.02-0.21-0.04-0.32m0.05 0.38c0.01 0.09 0.02 0.19 0.04 0.28-0.02-0.09-0.03-0.19-0.04-0.28m0.05 0.41c0.01 0.05 0.01 0.1 0.02 0.15-0.01-0.05-0.01-0.1-0.02-0.15"
        fill="#d2d4d2" />
      <path
        d="m3926 2734.5c-4.71 0-9.49 0.3-14.28 0.9l-30.12 3.79 6.45 51.17 30.11-3.79c4.8-0.6 9.56-0.89 14.28-0.89 47.57 0 89.77 29.97 106 73.86 0.85-8.16 0.85-16.53-0.14-25.01-0.01-0.05-0.01-0.1-0.02-0.15 0-0.04-0.01-0.09-0.01-0.13-0.02-0.09-0.03-0.19-0.04-0.28 0-0.02 0-0.04-0.01-0.06-0.01-0.11-0.02-0.21-0.04-0.32-1.04-8.31-2.96-16.3-5.66-23.87-12.08-34.03-39.72-59.89-73.47-70.26-10.52-3.23-21.63-4.96-33.05-4.96"
        fill="#f46969" />
      <path d="m3773.1 2752.9-1311 169.11 28.29 224.65 1311-169.11-28.28-224.65" fill="#fabb43" />
      <path d="m2228.5 3065.5 233.55-143.51 28.29 224.65-261.84-81.14" fill="#fef0d2" />
      <path d="m2462.1 2922 6.92 54.95-6.92-54.95" fill="#f3aa36" />
      <path d="m2462.1 2922-233.55 143.51 240.47-88.56-6.92-54.95" fill="#e2d2b4" />
      <path d="m2306.5 3089.6-77.98-24.17 69.56-42.74z" fill="#20254d" />
      <path d="m3881.6 2739.2-108.51 13.66 28.28 224.65 108.52-13.66-28.29-224.65" fill="#c1ebf1" />
      <path d="m3880.4 2729.6-37.09 4.67 30.7 243.89 37.1-4.67-30.71-243.89" fill="#c1ebf1" />
      <path d="m3773.1 2753.1-1311 168.9 6.92 54.95 1311-168.91-6.91-54.94" fill="#f3aa36" />
      <path d="m3844.5 2743.9-71.39 9.2 6.91 54.94 71.39-9.19-3.51-27.91-3.4-27.04" fill="#a9cfd5" />
      <path
        d="m3794.5 2922.8 6.89 54.74-738.1 95.22v0.09l809.47-104.29-53.31 6.71-18.06 2.27-6.89-54.74m-756.97 153.28-5.24 0.67-0.03 0.09 5.33-0.68-0.06-0.08m-96.94 12.5-8.67 1.12v0.07l8.68-1.12-0.01-0.07"
        fill="#e8eaea" />
      <path d="m2931.9 3089.7-120.31 15.52v0.05l120.31-15.5v-0.07" fill="#5b98d7" />
      <path d="m2811.6 3105.2-211.47 27.28v0.02l211.47-27.25v-0.05m-295.04 38.06h-0.03l-26.13 3.37 26.16-3.37"
        fill="#e8eaea" />
      <path d="m2600.1 3132.5-83.6 10.78h0.03l83.57-10.76v-0.02" fill="#5b98d7" />
      <path
        d="m3032.3 3076.7-0.08 0.01-0.03 0.09 0.08-0.01 0.03-0.09m-80.02 10.33-11.68 1.5 0.01 0.07 11.68-1.5-0.01-0.07"
        fill="#f47074" />
      <path d="m3032.2 3076.7-79.94 10.32 0.01 0.07 79.9-10.3 0.03-0.09" fill="#f14d63" />
      <path d="m3063.3 3072.7-25.76 3.32 0.06 0.08 25.7-3.31v-0.09" fill="#f2556a" />
      <path d="m3872.8 2968.5-53.36 6.72 53.31-6.71 0.05-0.01" fill="#f47074" />
      <path
        d="m3794.5 2922.8-1311 168.91 6.92 54.94 26.13-3.37 83.6-10.78 331.78-42.8 8.67-1.12 11.68-1.5 79.94-10.32 0.08-0.01 5.24-0.67 25.76-3.32 738.1-95.22-6.89-54.74"
        fill="#fab63f" />
      <path d="m3865.9 2913.6-71.39 9.19 6.89 54.74 18.06-2.27 53.36-6.72-6.92-54.94" fill="#bae5eb" />
      <path d="m3843.3 2734.2 1.21 9.62-1.21-9.62" fill="#dadbd9" />
      <path d="m3844.5 2743.9 3.4 27.04 3.51 27.91 1.26 9.98-8.17-64.93" fill="#afd7dc" />
      <path d="m3880.4 2729.6-37.09 4.67 1.21 9.62 8.17 64.93 37.1-4.67-1.73-13.76-6.45-51.17-1.21-9.62"
        fill="#afd7dc" />
      <path d="m3847.9 2770.9 3.51 27.91-3.51-27.91" fill="#9bbcc1" />
      <path
        d="m3423 2195.6 18.45 47.93 62.4 5.1c11.47 1.28 21.66-5.66 22.76-15.48 1.09-9.83-7.32-18.84-18.8-20.12l-84.81-17.43"
        fill="#f24f66" />
      <path d="m3390.7 2243.1 32.32-47.51 61.17 12.57-68.56 101.84-13.19-8.76c-19.3-12.81-24.55-38.84-11.74-58.14"
        fill="#f2566e" />
      <path d="m3441.3 2259.2 207.97 217.9-109.59 25.48-124.04-192.57 25.66-50.81" fill="#fff" />
      <path
        d="m3568.9 2486.5c11.07-23.79 39.34-34.1 63.13-23.02s34.1 39.35 23.02 63.14-39.35 34.1-63.14 23.02-34.09-39.35-23.01-63.14"
        fill="#fff" />
      <path
        d="m3585 2467.5 64.26 68.48-224.34 265.97c-19.22 26.12-57.11 29.15-80.24 6.43-23.14-22.72-20.87-103.1 4.9-122.78l235.42-218.1"
        fill="#fff" />
      <path d="m3217.7 2782.2 92.01-7.79 12.35 145.84-92.01 7.8-12.35-145.85" fill="#f2566e" />
      <path
        d="m2887.6 2708.8c-22.83-1.53-40.08-21.27-38.56-44.09 1.53-22.82 21.27-40.08 44.09-38.55s40.08 21.27 38.55 44.09-21.27 40.08-44.08 38.55"
        fill="#fff" />
      <path
        d="m2861.5 2702.7 41.94-74.54 256.39 57.6c31.42 8.01 48.46 84.42 36.09 114.39-12.38 29.97-48.44 42.03-76.35 25.53l-258.07-122.98"
        fill="#fff" />
      <path
        d="m3391.4 2280.6 27.91 488.13c6.55 26.05-11.02 52.01-37.64 55.62l-228.7 8.28c-26.62 3.61-50.47-16.73-51.09-43.59l-46.79-593.31 336.31 84.87"
        fill="#fff" />
      <path d="m3172.6 2280.6 52.72-164.21-23.45-1018.4h-93.97l-52.87 1097.7 7.21 84.87h110.36" fill="#255cb2" />
      <path d="m3172.6 2280.6 51.44-201.65h37.03l331.39-980.96h77l-233.31 1049.5-44.81 133.1h-218.74" fill="#4a73c2" />
      <path
        d="m2941.2 3103.9-1.51-9.41c-3.17-19.65 10.2-38.15 29.85-41.31l15.36-2.48c19.65-3.16 38.15 10.21 41.32 29.86l1.51 9.41-86.53 13.93"
        fill="#f2566e" />
      <path d="m3209.8 2830.6 67.01-2.49-27.27-40.7v-324.13l-39.29-82.74-36.16 99.71 50.35 309.81-14.64 40.54"
        fill="#255cb2" />
      <path
        d="m3162.1 3060.7c-5.28 6.02-10.11 12.43-14.37 19.26-8.5 13.19-14.32 28.83-13.59 44.7 0.84 15.53 7.74 31.81 20.28 41.58 4.77 3.81 10.32 6.44 16.22 7.96-2.9-1.34-5.74-2.95-8.37-5.19-12.08-10.04-16.73-26.29-17.7-40.65-1.99-30.31 9.49-59.12 30.94-78.65l-0.21-1.17c-4.69 3.78-9.18 7.76-13.2 12.16zm230.38-20.82c-2.23 22.14-10.44 43.65-24.38 60.5-12.89 15.58-30.37 27.22-49.58 33.48-9.42 3.08-18.34 4.74-28.01 3.73-11.97-1.25-24.22-2.58-35.62 2.5-16.07 7.11-27.6 21.02-42.11 30.04-3.33 2.07-7.04 3.77-10.93 5.07l0.03 0.05c-15.36 6.47-35.37 4.32-49.82-5.75-7.25-4.87-12.85-11.91-16.88-19.55-3.95-7.63-6.75-16.07-7.49-24.84-1.48-17.47 3.26-35.14 12.44-49.98 8.5-13.31 20.18-25.07 34.05-32.71-0.57-3.59-1.02-7.22-1.2-10.93-2.96-60.78 43.91-112.44 104.69-115.4 42.56-2.07 83.44 21.41 103.12 59.2 10.12 19.43 13.93 42.33 11.69 64.59"
        fill="#255cb2" />
      <path
        d="m3340.8 2973c-1.94-11.44 5.77-22.28 17.21-24.21 11.45-1.93 22.29 5.78 24.22 17.22s-5.78 22.28-17.22 24.21-22.28-5.77-24.21-17.22"
        fill="#f2566e" />
      <path
        d="m3251.2 3090.2c-48.8 0.72-67.68-40.29-67.68-40.29l-2.71-14.43-2.16-12.81 0.02-1.77-0.25 0.41-6.03-35.74c-8.32-49.26 23.05-98.15 72.18-107.23 49.79-9.21 97.3 24.15 105.7 73.89l7.39 43.78v0.09s13.91 85.79-106.46 94.1"
        fill="#f2566e" />
      <path
        d="m3260.8 2974.2c-5.36 3.38-41 10.02-45.31 7.63-4.63-2.58-6.53-8.67-5.29-13.82 1.23-5.16 5.03-9.38 9.41-12.36 9.94-6.79 23.5-7.88 34.4-2.78 4.14 1.94 8.05 4.89 9.84 9.1s0.81 9.78-3.05 12.23"
        fill="#fff" />
      <path
        d="m3270.7 3088c12.09-1.86 24.23-5.16 35.6-9.64 8.54-3.36 16.75-7.56 23.69-13.62 22.58-19.74 2.48-62.07-5.3-84.13-1.9-5.4-4.12-11.81-0.73-16.42 3.67-4.99 11.81-4.08 16.56-0.12 4.75 3.97 7.23 9.94 10.42 15.24 3.18 5.31 7.93 10.5 14.11 10.91l-3.6 100.19c-0.02 0.74-62.92 2.12-67.73 2.28-9.75 0.33-23.02-4.69-23.02-4.69"
        fill="#255cb2" />
    </g>
  </g>
</svg>