<svg id="0g9ja0vapskvasnv+awrng" data-name="Layer 1" xmlns="http://www.w3.org/2000/svg" width="100%"
    height="100%" viewBox="0 0 600 600" class='svgicon'>
    <g transform="matrix(1.3333 0 0 -1.3333 0 600)">
        <g transform="scale(.1)">
            <path
                d="m1582.2 2321.3c-28.06 355.39 0.68 1008 264.63 893.2 76.62-33.33 60.81-135.16 44.28-195.37-40.4-147.2-250.19-327.35-259.24-694.57l-49.67-3.26"
                fill="#0f3797" />
            <path
                d="m1582.2 2321.3c-7.79-84 32.53-176.73 132.93-151.32 10.02 2.54 18.01 10.19 22.19 19.65l8.57 19.38s-79.32-13.38-84.35 42.36c-5.03 55.73-9.68 61.9-29.67 73.19l-49.67-3.26"
                fill="#ff96a5" />
            <path
                d="m1879.8 2494c-18.68-334.38-321.31-1029.3-397.91-1119l41.1-35.49s396.04 375.26 521.2 872.39c193.35 128.9 80.39 282.08 80.39 282.08h-244.78"
                fill="#0f3797" />
            <path
                d="m1927.8 2494c0-508.11 265.82-1001.3 390.99-1169.4l41.09 37.37s-237.24 515.58-122.35 863.05c122.35 65.38 27.08 269 27.08 269h-336.81"
                fill="#205fae" />
            <path
                d="m1267.3 3012.9c40.57 6.38 139.96-20.18 139.96-20.18l2.65 38.35s113.56-37.57 112.24 55.45c60.65 30 127.75 13.79 155.92-6.19 84.07 42.85 138.5 98.53 154.12 160.95-138.71 25.22-268.48 4.04-268.48 4.04l-271.7 1.35-24.71-233.77"
                fill="#ff96a5" />
            <path
                d="m1408.7 3161.4-0.09-24.15s-89.81 16.59-108.32-14.37c-18.51-30.97-13.38-172.34-41.12-198.97-38.54-36.98-166.89-11.68-108.38 96.32-58.1-0.39-13.59 86.33 9.86 97.39-69.67 39.32-15.76 182.47 58.15 162.28-24.86 57.8 114.5 61.87 162.76 1.96 39.53 62.96 122.66 47.28 182.12-36.56-45.18-9.72-107.74-82.83-139.88-71.14-23.16 65.8-79.3 34.79-86.08 9.35-6.78-25.43 70.98-22.11 70.98-22.11"
                fill="#205fae" />
            <path
                d="m1351.2 3079.3c2.37-14.37 7-25.57 10.34-25.02s4.13 12.64 1.76 27.01c-2.36 14.37-6.99 25.57-10.33 25.02-3.34-0.54-4.13-12.64-1.77-27.01"
                fill="#f97088" />
            <path
                d="m1244.3 2933.2c3.6 2.95 6.37 6.71 8.17 11.22 0.55 1.31-0.1 2.81-1.4 3.34-1.33 0.5-2.85-0.16-3.33-1.43-5.05-12.35-19.32-17.98-38.38-14.98-20.17 3.21-42.39 16.38-43.35 30.9-0.1 1.41-1.3 2.49-2.72 2.4-1.38-0.1-2.47-1.28-2.38-2.73 1.15-17.51 25.62-32.13 47.64-35.62 15-2.4 27.53 0.16 35.75 6.9"
                fill="#fff" />
            <path
                d="m1526.8 3257.8c1.1 0.9 1.24 2.51 0.34 3.6-19.83 24.19-65.2 46.47-95.36 23.47-0.04-0.04-0.05-0.05-0.08-0.07-1.06-0.87-1.24-2.42-0.4-3.53 0.86-1.13 2.46-1.35 3.58-0.5 27.64 21.1 69.77 0.02 88.32-22.6 0.9-1.1 2.5-1.27 3.6-0.37"
                fill="#fff" />
            <path
                d="m1093.1 2996.3c0.17 0.14 0.32 0.32 0.46 0.51 0.43 0.61 10.41 15.1 8.13 37.26-3.13 30.97 10.53 55.55 44.12 79.49 1.4 0.66 1.43 2.43 0.6 3.56-0.82 1.16-2.43 1.43-3.56 0.61-35.54-25.24-49.61-51.14-46.24-84.17 2.05-20.18-7.14-33.67-7.24-33.81-0.8-1.16-0.53-2.76 0.64-3.55 0.95-0.69 2.21-0.61 3.09 0.1"
                fill="#205fae" />
            <path
                d="m1384.5 3278.8c0.96 0.8 1.21 2.19 0.58 3.28-12.13 20.67 2.62 34.21 3.26 34.77 1.04 0.93 1.14 2.55 0.2 3.61-0.9 1.03-2.47 1.16-3.53 0.29-0.02-0.02-0.04-0.03-0.08-0.07-0.14-0.13-11.89-10.74-9.37-27.39-18 23.46-34.45 57.64-34.65 58.05-0.59 1.27-2.11 1.82-3.4 1.22-1.38-0.68-1.84-2.13-1.21-3.42 0.22-0.46 23.01-47.83 44.73-70.13 0.9-0.95 2.37-1.04 3.39-0.27 0.04 0.03 0.05 0.05 0.08 0.06"
                fill="#205fae" />
            <path
                d="m2283.3 2587.4c-7.47 95.27-162.52 693.06-451.14 653.83s-73.79-599.66 47.64-747.24h384.82s26.15-1.86 18.68 93.41"
                fill="#a9cbe8" />
            <path
                d="m2119.9 2387.6c42.96 51.37 69.11-81.26 69.11-81.26s18.69 164.39 48.58 187.74h-193.35s32.69-157.85 75.66-106.48"
                fill="#a9cbe8" />
            <path
                d="m1848 2851.7c-0.92 0-1.8 0.43-2.38 1.2-0.82 1.14-0.71 2.69 0.23 3.72 0.8 0.83 79.14 85.31 99.26 160.34 0.43 1.54 2.03 2.4 3.61 2.05 1.54-0.43 2.48-2.03 2.06-3.6-16.13-60.05-68.6-125.78-90.69-151.53 24.17 12.57 74.65 41.67 93.74 74.39 0.83 1.38 2.57 1.86 4 1.03 1.37-0.8 1.86-2.6 1.03-4-26.29-45.1-106.26-81.8-109.66-83.34-0.38-0.17-0.81-0.26-1.2-0.26"
                fill="#fff" />
            <path
                d="m1746.7 2315.2c-91.08 344.66-179.34 991.95 100.87 926.1 81.35-19.12 83.97-122.14 78.46-184.33-13.46-152.05-187.72-366.77-131.04-729.7l-48.29-12.07"
                fill="#205fae" />
            <path
                d="m1746.7 2315.2c7.33-84.05 63.57-168.09 157.82-125.15 9.4 4.28 15.9 13.24 18.32 23.28l4.97 20.6s-75.66-27.32-90.56 26.62-20.59 59.18-42.26 66.72l-48.29-12.07"
                fill="#ff96a5" />
            <path
                d="m2359.9 1362s27.71-28.65 56.31-54.3c19.2-17.22 20.78-46.54 3.24-65.44-29.04-31.3-77.75-74.04-141.74-95.09h-120.4c-15.08 0-18.39 21.12-4.04 25.74 49.99 16.1 106.47 37.8 128.64 59.25 32.23 44.84 46.83 78.83 36.9 92.47l41.09 37.37"
                fill="#ff96a5" />
            <path
                d="m1523 1339.6-31.53-134.01c-5.26-22.37-29.72-34.23-50.44-24.28-60.8 29.17-172.15 102.44-211.92 259.42-2.96 11.7 12.16 19.14 20.08 10.03 96.59-111.11 184.33-124.06 232.71-75.67l41.1-35.49"
                fill="#ff96a5" />
            <path
                d="m3199.2 1147.2h-288.64c-49.26 0-89.19 39.93-89.19 89.19v538.48h467.02v-538.48c0-49.26-39.93-89.19-89.19-89.19"
                fill="#205fae" />
            <path
                d="m3053.4 1147.2h-288.64c-49.26 0-89.19 39.93-89.19 89.19v538.48h467.02v-538.48c0-49.26-39.93-89.19-89.19-89.19"
                fill="#0088a3" />
            <path
                d="m3378.7 2025.2h-132.07l65.63 111.83c13.44 22.89 5.77 41.45-17.13 41.45h-6.75c-22.89 0-52.35-18.56-65.79-41.45l-65.63-111.83h-132.07c-31.26 0-71.48-25.34-89.83-56.6l-113.7-193.72h467.02l113.7 193.72c18.35 31.26 7.88 56.6-23.38 56.6"
                fill="#00cec9" />
            <path
                d="m2634.1 2204.9c-11.86 0-23.75-0.8-35.27-1.92-31.32-3-53.44-15.23-60.73-33.58-4.75-11.92-2.28-25.06 6.6-35.21 13.72-15.66 38.87-20.81 67.17-13.75 41.35 10.35 57.59 49.05 52.81 82.29-9.97 1.57-20.26 2.17-30.58 2.17zm129.79-245.71h-0.29c-1.6 0.14-2.77 1.6-2.63 3.2 10.38 107.66-1.68 177.09-36.87 212.3-14.94 14.95-33.46 23.04-53.36 26.98 4.26-35.41-13.49-75.88-57.44-86.89-30.47-7.71-57.79-1.83-73.03 15.55-10.31 11.83-13.17 27.24-7.63 41.24 8.15 20.44 32.04 34.02 65.62 37.24 21.32 2.03 43.84 3.09 65.31 0.03-8.6 37.76-47.73 76.28-130.27 61.42-1.49-0.26-3.12 0.77-3.4 2.38-0.29 1.59 0.77 3.11 2.37 3.4 87.34 15.57 128.56-26.3 137.21-66.88 0.09-0.43 0.21-0.89 0.29-1.35 21.69-3.94 42.02-12.51 58.48-28.98 36.5-36.52 49.1-107.49 38.55-217.01-0.14-1.51-1.42-2.63-2.91-2.63"
                fill="#205fae" />
            <path
                d="m2921.2 2358.8c-35.02 0-44.13-11.75-46.16-15.64-2.49-4.71-1.8-9.97 1.97-14.83 7.63-9.83 27.44-16.92 54.3-10.32 18.53 4.46 33.04 16.35 42.47 30.98-11.6 5.29-25.72 8.52-41.95 9.49-3.77 0.23-7.32 0.32-10.63 0.32zm10.8-218.88c-0.71 0-1.43 0.26-2 0.78-1.17 1.08-1.26 2.94-0.14 4.14 65.5 70.71 92.71 131.76 76.59 171.91-5.06 12.55-14.4 22.55-27.43 29.67-10.24-16.09-26.04-29.21-46.33-34.13-31.42-7.51-52.16 1.98-60.31 12.47-5.17 6.66-6.12 14.34-2.54 21.15 7.2 13.63 30.24 20.4 62.33 18.4 17.24-1.03 32.24-4.51 44.64-10.23 7.55 13.8 10.84 29.47 9.1 43.44-4.06 32.24-31.27 50.62-74.83 50.62h-1.91c-1.6 0-2.95 1.28-2.95 2.89-0.03 1.6 1.26 2.94 2.89 2.94 0.62 0.03 1.28 0.03 1.91 0.03 46.19 0 76.28-20.75 80.68-55.76 1.89-15.03-1.62-31.87-9.71-46.76 14.12-7.75 24.32-18.72 29.89-32.56 17.01-42.35-10.6-105.6-77.74-178.08-0.57-0.6-1.37-0.92-2.14-0.92"
                fill="#205fae" />
            <path
                d="m2866.8 2826.9-114.24 43.68 28.66 95.76-98.81 34.97 39.59 107.9-35.67 6.95c-55.95-31.63-98.31-86.51-111.58-154.54-24.06-123.42 56.49-242.97 179.9-267.03 48.35-9.43 96-2.62 137.65 16.35l-110.32 35.43 84.82 80.53"
                fill="#ff785e" />
            <path
                d="m3152 2644.8c119.56 38.94 184.92 167.42 145.98 286.98-17.47 53.65-53.05 96.25-97.69 123.55l11.26-34.56-113.55-17.82 17.45-103.35-97.63-21.48 17.33-121.08-111.59 35.01 22.63-113.64c57.17-42.22 133.08-57.3 205.81-33.61"
                fill="#ff785e" />
            <path
                d="m2822 2818.4-114.24 43.69 28.66 95.76-98.82 34.96 39.6 107.91-35.67 6.95c-55.95-31.64-98.32-86.51-111.58-154.55-24.07-123.41 56.48-242.97 179.9-267.03 48.34-9.42 95.99-2.61 137.65 16.35l-110.33 35.43 84.83 80.53"
                fill="#ffb865" />
            <path
                d="m3124.4 2666.5c119.56 38.93 184.92 167.42 145.98 286.98-17.47 53.65-53.05 96.25-97.69 123.55l11.25-34.56-113.54-17.82 17.45-103.36-97.63-21.47 17.34-121.08-111.61 35.01 22.64-113.64c57.17-42.22 133.08-57.3 205.81-33.61"
                fill="#ffb865" />
            <path
                d="m2812.9 1663.6c-20.03 0-36.32-16.29-36.32-36.33 0-20.03 16.29-36.32 36.32-36.32h204.56c20 0 36.29 16.29 36.29 36.32 0 20.04-16.29 36.33-36.29 36.33zm204.56-78.48h-204.56c-23.26 0-42.16 18.89-42.16 42.15 0 23.27 18.9 42.16 42.16 42.16h204.56c23.23 0 42.12-18.89 42.12-42.16 0-23.26-18.89-42.15-42.12-42.15"
                fill="#fff" />
            <path
                d="m2240.3 2605.1c-0.13 0-0.28 0-0.42 0.03-1.58 0.22-2.69 1.71-2.46 3.31 3.03 21.18-7.95 32.13-20.67 44.84-17.31 17.27-36.95 36.87-26 86.12 10.88 49.01-18.9 63.93-56.59 82.8-24.21 12.11-51.65 25.83-71.74 51.13-25.3 31.87-16.12 66.53-7.26 100.06 9.52 35.95 18.49 69.91-11.26 101.52-1.09 1.17-1.03 3.03 0.14 4.14 1.2 1.09 3 1.06 4.15-0.14 31.95-33.98 22.12-71.11 12.63-107.01-8.89-33.61-17.29-65.36 6.17-94.91 19.3-24.3 46.1-37.73 69.77-49.56 38.41-19.24 71.59-35.81 59.7-89.29-10.23-46.1 7.38-63.71 24.41-80.71 13.26-13.23 25.78-25.75 22.32-49.85-0.2-1.45-1.46-2.48-2.89-2.48"
                fill="#fff" />
            <path
                d="m1945.2 2571.4c-0.4 0-0.8 0.05-1.2 0.26-1.49 0.65-2.14 2.4-1.46 3.85 12.84 28.47-14.43 45.27-43.3 63.05-25.69 15.81-52.24 32.18-46.55 57.82 0.34 1.57 1.91 2.72 3.48 2.23 1.57-0.34 2.58-1.91 2.23-3.49-4.8-21.58 18.87-36.15 43.93-51.58 28.35-17.47 60.51-37.27 45.53-70.43-0.48-1.09-1.54-1.71-2.66-1.71"
                fill="#fff" />
        </g>
    </g>
</svg>