<?xml version="1.0" encoding="UTF-8"?>
<svg version="1.1" viewBox="0 0 1089.5 143.22" xml:space="preserve" xmlns="http://www.w3.org/2000/svg"><defs><clipPath id="a"><path d="M 0,482.589 H 1335.615 V 0 H 0 Z"/></clipPath></defs><g transform="matrix(1.3333 0 0 -1.3333 -77.244 280.91)"><g clip-path="url(#a)"><g transform="translate(810.18 193.99)"><path d="m0 0c0.351 0.219 0.674 0.442 0.887 0.812 0.475 0.824 0.119 1.53-0.831 1.639-0.459 0.049-0.868-0.094-1.281-0.287-4.212-1.968-8.307-4.479-12.189-7.506-1.867-1.478-1.372-1.402-2.629 0.885-0.628 1.177-0.411 1.733 0.391 2.421 3.93 3.365 8.098 6.192 12.402 8.366 0.834 0.428 2.007 0.8 1.65 2.046-0.376 1.379-1.567 0.822-2.476 0.499-4.538-1.58-9.039-3.673-13.305-6.532-1.536-1.046-1.476 0.691-1.917 1.695-0.562 1.264-0.165 1.871 0.715 2.475 4.389 3.013 8.961 5.46 13.604 7.212 0.519 0.196 1.028 0.371 1.44 0.846 0.696 0.798 0.57 1.675-0.309 2.028-0.48 0.194-0.963 0.032-1.453-0.085-2.826-0.681-5.649-1.601-8.458-2.641-6.851-2.523-13.497-6.82-19.52-12.466-2.249-2.064-2.989-6.29-1.569-10.09-1.239-1.192-2.085-2.685-3.014-4.094-2.127-3.225-3.795-6.714-5.528-10.16-0.624-1.379-0.975-2.859-1.544-4.248-1.897-4.631-2.991-9.47-3.759-14.381-0.789-5.041-0.971-10.123-0.644-15.223 0.668-10.393 3.468-20.183 8.272-29.411 1.114-2.14 2.881-3.55 5.209-3.998 3.186-0.612 5.881 0.452 7.731 3.152 1.671 2.44 1.769 5.095 0.405 7.722-3.676 7.081-5.898 14.575-6.553 22.533-0.661 8.041 0.313 15.898 3.037 23.467 1.267 3.519 2.735 6.968 4.623 10.206 1.968-1.443 4.056-0.74 5.461 1.528 5.821 9.15 13.093 16.603 21.152 21.59" fill="#fdcd30"/></g><g transform="translate(858.29 132.91)"><path d="m0 0c-5.56-12.136-19.878-17.918-32.54-12.42-12.868 5.587-18.349 20.759-12.731 32.792 5.199 12.397 20.058 18.351 32.723 12.756 12.383-5.47 18.467-20.207 12.548-33.128m-7.059 46.714c-20.041 8.987-43.741 0.012-52.633-20.397-8.985-20.622 0.403-43.465 20.04-52.323 21.04-9.49 44.315 0.4 53.031 20.319 9.022 20.62-0.86 43.971-20.438 52.401" fill="#fdcd30"/></g><g transform="translate(510.29 137.19)"><path d="m0 0c-0.117-9 6.286-15.803 15.068-16.008 9.075-0.213 16.112 6.424 16.333 15.404 0.215 8.742-6.492 15.766-15.244 15.963-9.257 0.208-16.038-6.239-16.157-15.359m31.729-24.634c-4.976-3.677-9.034-6.326-13.882-7.433-18.467-4.218-34.764 7.917-36.605 27.364-0.617 6.515 0.04 12.891 2.633 19.002 7.483 17.64 28.267 23.565 43.982 12.506 0.894-0.63 1.758-1.304 3.299-2.45-1.192 7.952 4.145 6.151 8.18 6.171 10.844 0.052 10.844 0.018 10.844-10.834 0-15.455-0.088-30.91 0.068-46.364 0.034-3.382-0.691-4.958-4.438-4.546-2.977 0.327-6.048 0.327-9.026 3e-3 -4.222-0.46-6.311 0.815-5.055 6.581" fill="#fff"/></g><g transform="translate(672.98 152.55)"><path d="m0 0c-9.195 0.159-15.988-6.388-16.067-15.484-0.077-8.934 6.434-15.732 15.218-15.888 9.069-0.161 16.071 6.554 16.189 15.524 0.115 8.79-6.57 15.697-15.34 15.848m16.159-39.434c-10.891-8.903-21.282-11.145-32.599-6.685-15.036 5.925-22.25 24.261-16.793 42.003 4.857 15.791 19.752 24.147 35.734 20.052 4.523-1.159 8.339-3.647 12.666-7.019-1.385 7.768 3.701 6.241 7.658 6.252 11.355 0.031 11.355 0.011 11.355-11.263 0-15.287-0.133-30.576 0.091-45.859 0.057-3.852-1.211-4.976-4.845-4.615-2.668 0.265-5.388 0.14-8.077 0.03-3.927-0.16-7.935-0.56-5.19 7.104" fill="#fff"/></g><g transform="translate(190.67 136.85)"><path d="m0 0c9e-3 8.892-6.586 15.605-15.424 15.7-9.137 0.099-15.956-6.577-15.976-15.638-0.02-9.031 6.839-15.816 15.911-15.737 8.786 0.076 15.48 6.851 15.489 15.675m0.094 24.711c-1.328 6.081 1.792 6.587 5.949 6.202 4.069-0.377 9.391 1.655 11.937-0.781 2.794-2.673 0.879-8.052 0.914-12.237 0.126-14.799-0.078-29.602 0.139-44.399 0.053-3.652-1.097-4.721-4.571-4.369-2.664 0.27-5.397 0.256-8.066 7e-3 -4.186-0.391-7.622-0.177-6.323 6.471-4.489-3.609-8.463-6.103-13.105-7.244-16.991-4.175-32.892 5.91-36.327 23.062-1.716 8.567-1.148 16.931 2.722 24.877 7.895 16.21 27.794 21.389 42.713 11.176 1.124-0.769 2.243-1.543 4.018-2.765" fill="#fff"/></g><g transform="translate(100.9 137.16)"><path d="m0 0c5.52 13.569 10.545 25.927 15.575 38.284 1.839 4.519 3.878 8.97 5.461 13.576 0.941 2.738 2.45 3.572 5.218 3.455 4.587-0.193 9.195-0.208 13.78-1e-3 3.481 0.157 3.553-0.952 2.303-3.757-8.268-18.549-16.396-37.16-24.567-55.751-3.294-7.495-6.787-14.913-9.779-22.525-1.381-3.515-3.334-4.299-6.981-4.597-5.588-0.457-7.836 1.798-9.913 6.663-10.815 25.335-21.98 50.524-33.222 75.675-1.691 3.783-0.887 4.527 2.917 4.297 4.105-0.248 8.253-0.286 12.35 0.015 3.442 0.252 4.977-1.083 6.213-4.22 6.577-16.683 13.406-33.268 20.645-51.114" fill="#fff"/></g><g transform="translate(366.37 112.01)"><path d="m0 0c-6.632-5.881-13.728-8.523-21.845-7.599-11.5 1.309-19.793 10.239-20.495 23.043-0.68 12.408-0.29 24.874-0.452 37.314-0.029 2.244 0.799 3.059 3.043 2.99 3.956-0.12 7.928-0.197 11.876 0.026 2.908 0.164 3.851-0.787 3.796-3.713-0.167-8.817-0.078-17.64-0.042-26.46 8e-3 -1.884 0.063-3.789 0.35-5.646 1.019-6.592 4.764-9.818 11.203-9.805 6.462 0.012 11.237 3.621 12.026 9.766 1.269 9.87 0.338 19.819 0.525 29.732 0.115 6.066 0.03 6.187 6.102 6.03 4.053-0.105 9.25 1.785 11.842-0.902 2.36-2.446 0.66-7.513 0.679-11.418 0.074-15.121-0.041-30.242 0.088-45.362 0.025-2.98-0.677-4.312-3.918-4.027-2.986 0.263-6.025 0.213-9.022 0.016-3.993-0.262-7.349-0.119-5.756 6.015" fill="#fff"/></g><g transform="translate(568.48 167.71)"><path d="m0 0c5.935 0 11.903-0.038 17.87 0.018 2.431 0.023 2.594-1.913 3.234-3.43 4.155-9.857 8.285-19.725 12.839-30.581 3.597 8.614 6.876 16.372 10.079 24.161 4.045 9.837 4.018 9.848 14.683 9.848h8.912c0.93-1.609-0.174-2.582-0.659-3.626-8.43-18.14-17.071-36.187-25.225-54.449-2.138-4.789-5.664-3.303-9.026-3.636-3.103-0.307-5.059 0.454-6.535 3.706-8.069 17.782-16.465 35.419-24.711 53.123-0.646 1.387-1.722 2.669-1.461 4.866" fill="#fff"/></g><g transform="translate(454.16 128.49)"><path d="m0 0c0 5.986-0.129 11.977 0.054 17.958 0.09 2.94-0.609 4.148-3.895 4.134-8.194-0.035-8.195 0.139-8.195 8.147v0.472c0 8.212-2e-3 8.358 8.4 8.449 3.026 0.033 3.656 1.129 3.697 3.883 0.151 10.115 0.245 10.114 10.334 12.725 8.46 2.189 8.46 2.189 8.459-6.452v-1.418c0-8.343-1e-3 -8.455 8.275-8.598 2.639-0.045 3.837-0.736 3.489-3.464-0.139-1.085-0.011-2.203-0.024-3.306-0.035-3.148 0.968-6.882-0.394-9.293-1.617-2.863-5.733-0.998-8.729-1.154-3.086-0.16-2.598-2.119-2.602-3.925-0.025-11.972-0.144-23.948 0.064-35.917 0.062-3.618-0.805-5.188-4.694-4.764-2.975 0.324-6.039 0.311-9.018 4e-3 -3.994-0.412-5.671 0.614-5.33 5.04 0.446 5.795 0.109 11.65 0.109 17.479" fill="#fff"/></g><g transform="translate(406.63 128.39)"><path d="m0 0c0 6.143-0.136 12.29 0.059 18.427 0.092 2.915-0.888 3.736-3.78 3.755-8.267 0.054-8.267 0.185-8.267 8.569 0 0.315 0 0.63 1e-3 0.945 0 7.577 9e-3 7.819 7.381 7.548 3.913-0.144 4.755 1.222 4.687 4.824-0.173 9.199-0.012 9.202 8.923 11.376 9.887 2.406 9.887 2.406 9.887-7.834v-0.945c0-7.257 5e-3 -7.44 7.212-7.244 3.427 0.094 5.131-0.679 4.504-4.366-0.156-0.919-3e-3 -1.887-0.027-2.831-0.079-3.134 0.891-6.937-0.558-9.216-1.5-2.362-5.573-0.768-8.497-0.83-3.094-0.067-2.621-2.047-2.624-3.868-0.018-11.971-0.127-23.944 0.062-35.912 0.055-3.519-0.623-5.209-4.623-4.825-4.536 0.435-10.632-1.421-13.297 0.876-3.082 2.656-0.754 8.864-1.015 13.519-0.15 2.67-0.028 5.354-0.028 8.032" fill="#fff"/></g><g transform="translate(274.57 148.64)"><path d="m0 0c0-12.908-0.092-25.817 0.067-38.723 0.038-3.098-0.889-4.145-3.999-3.944-3.784 0.245-7.599 0.167-11.393 0.021-2.389-0.092-3.372 0.617-3.366 3.156 0.068 26.76 0.059 53.52 0.017 80.28-4e-3 2.226 0.813 3.079 3.054 3.012 3.796-0.113 7.612-0.224 11.394 0.035 3.278 0.224 4.349-0.8 4.302-4.17-0.186-13.22-0.076-26.444-0.076-39.667" fill="#fff"/></g><g transform="translate(315.78 167.72)"><path d="m0 0c-6.852-9.86-12.923-18.86-19.314-27.629-1.861-2.553-1.604-4.112 0.226-6.453 6.881-8.8 13.534-17.776 20.936-27.565-7.22 0-13.587-9e-3 -19.955 6e-3 -1.536 3e-3 -2.053 1.335-2.768 2.313-5.024 6.872-10.27 13.602-14.923 20.715-3.296 5.039-3.146 10.975-0.22 15.996 4.113 7.058 9.155 13.579 13.765 20.353 0.929 1.366 1.881 2.336 3.77 2.302 5.815-0.105 11.634-0.038 18.483-0.038" fill="#fff"/></g><g transform="translate(223.13 136.85)"><path d="m0 0c0 8.99 0.122 17.982-0.066 26.968-0.065 3.141 0.956 4.25 4.065 3.94 4.828-0.48 11.011 2.011 14.15-1.087 2.701-2.665 0.703-8.703 0.73-13.245 0.084-14.351-0.097-28.706 0.12-43.054 0.055-3.606-0.999-4.777-4.524-4.38-4.666 0.527-10.738-1.972-13.687 1.047-2.712 2.776-0.659 8.711-0.759 13.252-0.122 5.517-0.029 11.039-0.029 16.559" fill="#fff"/></g><g transform="translate(232.45 176.78)"><path d="m0 0c-6.169 0.071-10.445 4.354-10.42 10.438 0.024 5.968 4.496 10.446 10.487 10.5 6.19 0.057 10.715-4.554 10.611-10.809-0.102-6.133-4.392-10.201-10.678-10.129" fill="#fff"/></g><g transform="translate(749.32 115.01)"><path d="m0 0c0-5.923-4.801-10.724-10.724-10.724s-10.724 4.801-10.724 10.724 4.801 10.724 10.724 10.724 10.724-4.801 10.724-10.724" fill="#fdcc30"/></g></g></g></svg>
